<svg xmlns="http://www.w3.org/2000/svg" width="1200" height="800" viewBox="0 0 1200 800">
  <rect width="1200" height="800" fill="#f1f3f8" />
  <rect x="40" y="30" width="280" height="50" rx="10" fill="#ffffff" stroke="#ccc" />
  <rect x="360" y="40" width="120" height="16" rx="8" fill="#ccc" />
  <rect x="500" y="40" width="120" height="16" rx="8" fill="#ccc" />
  <rect x="640" y="40" width="120" height="16" rx="8" fill="#ccc" />
  <rect x="940" y="35" width="160" height="40" rx="20" fill="#e8eefe" stroke="#9db7d4" />
  <rect x="40" y="120" width="1120" height="300" rx="24" fill="#ffffff" stroke="#d7dbe6" />
  <rect x="70" y="150" width="420" height="28" rx="14" fill="#d6e1f2" />
  <rect x="70" y="200" width="320" height="20" rx="10" fill="#e8ecf5" />
  <rect x="70" y="240" width="480" height="24" rx="12" fill="#e8ecf5" />
  <rect x="70" y="280" width="300" height="220" rx="18" fill="#f6f8fb" />
  <rect x="80" y="300" width="120" height="18" rx="9" fill="#d6e1f2" />
  <rect x="80" y="330" width="240" height="42" rx="8" fill="#ffffff" stroke="#c7d0dd" />
  <rect x="80" y="390" width="240" height="42" rx="8" fill="#ffffff" stroke="#c7d0dd" />
  <rect x="80" y="450" width="240" height="42" rx="8" fill="#ffffff" stroke="#c7d0dd" />
  <rect x="340" y="330" width="64" height="64" rx="16" fill="#dee7f4" />
  <rect x="420" y="330" width="240" height="42" rx="20" fill="#e8effc" stroke="#9db7d4" />
  <rect x="420" y="400" width="240" height="42" rx="20" fill="#e8effc" stroke="#9db7d4" />
  <rect x="420" y="470" width="320" height="92" rx="18" fill="#f8fafc" stroke="#d7dbe6" />
  <rect x="70" y="520" width="1040" height="70" rx="18" fill="#f0f3f8" />
  <rect x="90" y="540" width="260" height="14" rx="7" fill="#d6e1f2" />
  <rect x="90" y="570" width="800" height="16" rx="8" fill="#e8ecf5" />
  <rect x="70" y="620" width="1040" height="42" rx="14" fill="#f8fafc" stroke="#d7dbe6" />
  <text x="70" y="105" font-family="Inter, sans-serif" font-size="26" fill="#3a3f58">Landing screen with hero converter</text>
</svg>