<svg xmlns="http://www.w3.org/2000/svg" width="1400" height="900" viewBox="0 0 1400 900">
  <rect width="1400" height="900" fill="#eef1f6" />
  <g transform="translate(40,40)">
    <rect x="0" y="0" width="760" height="820" rx="32" fill="#fff" stroke="#c2cad6" stroke-width="2" />
    <rect x="24" y="24" width="712" height="54" rx="16" fill="#f6f8fb" />
    <rect x="40" y="36" width="140" height="18" rx="9" fill="#dae2ee" />
    <rect x="200" y="36" width="120" height="18" rx="9" fill="#dae2ee" />
    <rect x="340" y="36" width="120" height="18" rx="9" fill="#dae2ee" />
    <rect x="620" y="32" width="90" height="32" rx="16" fill="#e4ebf5" />
    <rect x="24" y="100" width="712" height="220" rx="24" fill="#f8fbff" stroke="#dbe4ee" />
    <rect x="40" y="116" width="220" height="24" rx="12" fill="#d8e1ed" />
    <rect x="40" y="154" width="660" height="20" rx="10" fill="#e9eff7" />
    <rect x="40" y="188" width="660" height="20" rx="10" fill="#e9eff7" />
    <rect x="40" y="232" width="320" height="190" rx="20" fill="#fff" stroke="#d6dee8" />
    <rect x="360" y="232" width="320" height="190" rx="20" fill="#fff" stroke="#d6dee8" />
    <rect x="700" y="232" width="48" height="48" rx="16" fill="#e3ecf7" />
    <rect x="760" y="232" width="200" height="40" rx="20" fill="#ecf4fc" stroke="#acc0e0" />
    <rect x="760" y="292" width="200" height="40" rx="20" fill="#ecf4fc" stroke="#acc0e0" />
    <rect x="760" y="352" width="320" height="70" rx="20" fill="#f7faff" stroke="#d6dee8" />
    <rect x="24" y="336" width="712" height="240" rx="24" fill="#fbfdff" stroke="#d7dfe6" />
    <rect x="40" y="356" width="220" height="24" rx="12" fill="#d8e1ed" />
    <rect x="40" y="390" width="620" height="16" rx="8" fill="#e9eff7" />
    <rect x="40" y="416" width="620" height="16" rx="8" fill="#e9eff7" />
    <rect x="40" y="442" width="620" height="16" rx="8" fill="#e9eff7" />
    <rect x="24" y="605" width="712" height="52" rx="20" fill="#f0f5fb" />
    <rect x="40" y="626" width="220" height="16" rx="8" fill="#d8e1ed" />
    <rect x="40" y="652" width="620" height="14" rx="7" fill="#e9eff7" />
    <rect x="40" y="676" width="620" height="14" rx="7" fill="#e9eff7" />
    <rect x="24" y="678" width="712" height="142" rx="24" fill="#f9fbff" stroke="#d7dfe6" />
    <rect x="40" y="702" width="340" height="18" rx="9" fill="#d8e1ed" />
    <rect x="40" y="730" width="620" height="14" rx="7" fill="#e9eff7" />
  </g>
  <g transform="translate(850,90)">
    <rect x="0" y="0" width="500" height="700" rx="24" fill="#fff" stroke="#c2cad6" stroke-width="2" />
    <rect x="24" y="24" width="452" height="40" rx="14" fill="#f6f8fb" />
    <rect x="40" y="34" width="120" height="16" rx="8" fill="#d8e1ed" />
    <rect x="180" y="34" width="120" height="16" rx="8" fill="#d8e1ed" />
    <rect x="325" y="34" width="92" height="24" rx="12" fill="#e4ebf5" />
    <rect x="24" y="86" width="452" height="108" rx="18" fill="#f8fbff" stroke="#dbe4ee" />
    <rect x="40" y="102" width="220" height="18" rx="9" fill="#d8e1ed" />
    <rect x="40" y="132" width="380" height="14" rx="7" fill="#e9eff7" />
    <rect x="40" y="158" width="380" height="14" rx="7" fill="#e9eff7" />
    <rect x="40" y="194" width="420" height="120" rx="20" fill="#fff" stroke="#d6dee8" />
    <rect x="40" y="330" width="420" height="26" rx="13" fill="#d8e1ed" />
    <rect x="40" y="368" width="420" height="16" rx="8" fill="#e9eff7" />
    <rect x="40" y="394" width="420" height="16" rx="8" fill="#e9eff7" />
    <rect x="24" y="440" width="452" height="112" rx="20" fill="#fbfdff" stroke="#d7dfe6" />
    <rect x="40" y="462" width="160" height="18" rx="9" fill="#d8e1ed" />
    <rect x="40" y="492" width="380" height="14" rx="7" fill="#e9eff7" />
    <rect x="40" y="520" width="380" height="14" rx="7" fill="#e9eff7" />
    <rect x="24" y="568" width="452" height="80" rx="18" fill="#f0f5fb" />
    <rect x="40" y="590" width="320" height="14" rx="7" fill="#d8e1ed" />
    <rect x="40" y="616" width="380" height="14" rx="7" fill="#e9eff7" />
  </g>
  <g transform="translate(40,520)">
    <rect x="0" y="0" width="320" height="360" rx="28" fill="#fff" stroke="#c2cad6" stroke-width="2" />
    <rect x="20" y="20" width="280" height="34" rx="14" fill="#f6f8fb" />
    <rect x="20" y="70" width="280" height="18" rx="9" fill="#d8e1ed" />
    <rect x="20" y="102" width="280" height="18" rx="9" fill="#e9eff7" />
    <rect x="20" y="136" width="280" height="14" rx="7" fill="#e9eff7" />
    <rect x="20" y="174" width="280" height="180" rx="20" fill="#fbfdff" stroke="#d7dfe6" />
    <rect x="40" y="192" width="120" height="16" rx="8" fill="#d8e1ed" />
    <rect x="40" y="222" width="220" height="14" rx="7" fill="#e9eff7" />
    <rect x="40" y="246" width="220" height="14" rx="7" fill="#e9eff7" />
    <rect x="40" y="274" width="220" height="14" rx="7" fill="#e9eff7" />
  </g>
  <text x="70" y="26" font-family="Inter, sans-serif" font-size="22" fill="#24324a">Full-page wireframe across desktop, laptop, and mobile views</text>
  <text x="78" y="90" font-family="Inter, sans-serif" font-size="16" fill="#6e7a8f">Desktop</text>
  <text x="858" y="90" font-family="Inter, sans-serif" font-size="16" fill="#6e7a8f">Laptop</text>
  <text x="78" y="535" font-family="Inter, sans-serif" font-size="16" fill="#6e7a8f">Mobile</text>
</svg>